<svg width="25" height="24" viewBox="0 0 25 24" fill="none" xmlns="http://www.w3.org/2000/svg">
<path fill-rule="evenodd" clip-rule="evenodd" d="M5.49805 18.9676C5.22191 18.9676 4.99805 19.1915 4.99805 19.4676C4.99805 19.7438 5.22191 19.9676 5.49805 19.9676L20.5 19.9676C20.7761 19.9676 21 19.7438 21 19.4676C21 19.1915 20.7761 18.9676 20.5 18.9676L5.49805 18.9676ZM8.37282 14.6007V5L17.6243 5V14.6007H8.37282ZM8.37282 15.6007C7.82054 15.6007 7.37282 15.153 7.37282 14.6007V5C7.37282 4.44771 7.82054 4 8.37282 4L17.6243 4C18.1766 4 18.6243 4.44771 18.6243 5V14.6007C18.6243 15.153 18.1766 15.6007 17.6243 15.6007H8.37282Z" fill="black"/>
</svg>
