<svg width="24" height="25" viewBox="0 0 24 25" fill="none" xmlns="http://www.w3.org/2000/svg">
<path fill-rule="evenodd" clip-rule="evenodd" d="M5.03238 4.5C5.03238 4.22386 4.80852 4 4.53238 4C4.25624 4 4.03238 4.22386 4.03238 4.5L4.03238 19.5019C4.03238 19.7781 4.25624 20.0019 4.53238 20.0019C4.80852 20.0019 5.03238 19.7781 5.03238 19.5019L5.03238 4.5ZM9.39933 7.37477L19 7.37477V16.6262H9.39933L9.39933 7.37477ZM8.39933 7.37477C8.39933 6.82248 8.84704 6.37477 9.39933 6.37477L19 6.37477C19.5523 6.37477 20 6.82248 20 7.37477V16.6262C20 17.1785 19.5523 17.6262 19 17.6262H9.39933C8.84704 17.6262 8.39933 17.1785 8.39933 16.6262L8.39933 7.37477Z" fill="black"/>
</svg>
