<svg width="24" height="25" viewBox="0 0 24 25" fill="none" xmlns="http://www.w3.org/2000/svg">
<path fill-rule="evenodd" clip-rule="evenodd" d="M18.9676 19.5019C18.9676 19.7781 19.1915 20.0019 19.4676 20.0019C19.7438 20.0019 19.9676 19.7781 19.9676 19.5019L19.9676 4.5C19.9676 4.22386 19.7438 4 19.4676 4C19.1915 4 18.9676 4.22386 18.9676 4.5L18.9676 19.5019ZM14.6007 16.6272H5V7.37572H14.6007V16.6272ZM15.6007 16.6272C15.6007 17.1795 15.153 17.6272 14.6007 17.6272H5C4.44771 17.6272 4 17.1795 4 16.6272V7.37572C4 6.82343 4.44771 6.37572 5 6.37572H14.6007C15.153 6.37572 15.6007 6.82343 15.6007 7.37572V16.6272Z" fill="black"/>
</svg>
