<svg width="25" height="24" viewBox="0 0 25 24" fill="none" xmlns="http://www.w3.org/2000/svg">
<path fill-rule="evenodd" clip-rule="evenodd" d="M19.5019 5C19.7781 5 20.0019 4.77614 20.0019 4.5C20.0019 4.22386 19.7781 4 19.5019 4L4.5 4C4.22386 4 4 4.22386 4 4.5C4 4.77614 4.22386 5 4.5 5L19.5019 5ZM16.6272 9.36695V18.9676H7.37572V9.36695H16.6272ZM16.6272 8.36695C17.1795 8.36695 17.6272 8.81466 17.6272 9.36695V18.9676C17.6272 19.5199 17.1795 19.9676 16.6272 19.9676H7.37572C6.82343 19.9676 6.37572 19.5199 6.37572 18.9676V9.36695C6.37572 8.81466 6.82343 8.36695 7.37572 8.36695H16.6272Z" fill="black"/>
</svg>
